<svg width="220" height="220" viewBox="0 0 220 220" fill="none" xmlns="http://www.w3.org/2000/svg">
  <g fill="#1F553C" fill-opacity="0.08">
    <circle cx="10" cy="10" r="3"/><circle cx="30" cy="10" r="3"/><circle cx="50" cy="10" r="3"/><circle cx="70" cy="10" r="3"/><circle cx="90" cy="10" r="3"/><circle cx="110" cy="10" r="3"/><circle cx="130" cy="10" r="3"/><circle cx="150" cy="10" r="3"/><circle cx="170" cy="10" r="3"/><circle cx="190" cy="10" r="3"/>
    <circle cx="10" cy="30" r="3"/><circle cx="30" cy="30" r="3"/><circle cx="50" cy="30" r="3"/><circle cx="70" cy="30" r="3"/><circle cx="90" cy="30" r="3"/><circle cx="110" cy="30" r="3"/><circle cx="130" cy="30" r="3"/><circle cx="150" cy="30" r="3"/><circle cx="170" cy="30" r="3"/><circle cx="190" cy="30" r="3"/>
    <circle cx="10" cy="50" r="3"/><circle cx="30" cy="50" r="3"/><circle cx="50" cy="50" r="3"/><circle cx="70" cy="50" r="3"/><circle cx="90" cy="50" r="3"/><circle cx="110" cy="50" r="3"/><circle cx="130" cy="50" r="3"/><circle cx="150" cy="50" r="3"/><circle cx="170" cy="50" r="3"/><circle cx="190" cy="50" r="3"/>
    <circle cx="10" cy="70" r="3"/><circle cx="30" cy="70" r="3"/><circle cx="50" cy="70" r="3"/><circle cx="70" cy="70" r="3"/><circle cx="90" cy="70" r="3"/><circle cx="110" cy="70" r="3"/><circle cx="130" cy="70" r="3"/><circle cx="150" cy="70" r="3"/><circle cx="170" cy="70" r="3"/><circle cx="190" cy="70" r="3"/>
    <circle cx="10" cy="90" r="3"/><circle cx="30" cy="90" r="3"/><circle cx="50" cy="90" r="3"/><circle cx="70" cy="90" r="3"/><circle cx="90" cy="90" r="3"/><circle cx="110" cy="90" r="3"/><circle cx="130" cy="90" r="3"/><circle cx="150" cy="90" r="3"/><circle cx="170" cy="90" r="3"/><circle cx="190" cy="90" r="3"/>
    <circle cx="10" cy="110" r="3"/><circle cx="30" cy="110" r="3"/><circle cx="50" cy="110" r="3"/><circle cx="70" cy="110" r="3"/><circle cx="90" cy="110" r="3"/><circle cx="110" cy="110" r="3"/><circle cx="130" cy="110" r="3"/><circle cx="150" cy="110" r="3"/><circle cx="170" cy="110" r="3"/><circle cx="190" cy="110" r="3"/>
  </g>
</svg>
